#!OML:ASF F:\VICON\USERDATA\INSTALL\rory3\rory3.ASF
:FULLY-SPECIFIED
:DEGREES
330
root 1.61322 17.9347 1.31387 -4.69472 -1.06284 -4.05083
lowerback 18.6539 0.326539 3.46374
upperback 0.036044 1.64562 4.27796
thorax -10.5116 0.7303 2.27755
lowerneck -8.76062 -7.2873 -6.16505
upperneck 32.2812 -8.89207 -1.41161
head 12.3371 -4.88335 -0.639155
rclavicle -1.89839e-014 3.18055e-015
rhumerus -42.0926 -37.0807 -50.9058
rradius 67.9293
rwrist -32.2094
rhand -21.0497 -2.73778
rfingers 7.12502
rthumb 5.32639 -32.6508
lclavicle -1.89839e-014 3.18055e-015
lhumerus -53.7523 14.0205 67.5615
lradius 29.9764
lwrist -2.07617
lhand -7.59217 51.671
lfingers 7.12502
lthumb 18.3012 80.8301
rfemur -2.92342 1.23771 31.7299
rtibia 32.3046
rfoot -18.944 -18.7069
rtoes 12.4673
lfemur -25.7 -1.67159 -15.788
ltibia 54.3429
lfoot -10.209 4.78641
ltoes -14.9369
331
root 1.59787 17.9361 1.50422 -4.63851 -1.20571 -4.07576
lowerback 18.6322 0.367497 3.56261
upperback -0.0131843 1.72243 4.27393
thorax -10.553 0.760796 2.1967
lowerneck -8.31669 -7.26108 -6.51347
upperneck 31.6291 -8.90439 -1.06755
head 12.0212 -4.8905 -0.416993
rclavicle -6.55989e-015 -2.8625e-014
rhumerus -42.5812 -36.4528 -50.7403
rradius 70.6876
rwrist -31.4885
rhand -18.7039 -1.99813
rfingers 7.12502
rthumb 7.591 -31.8419
lclavicle -6.55989e-015 -2.8625e-014
lhumerus -54.3546 14.3024 67.1251
lradius 30.048
lwrist -2.23167
lhand -7.90138 51.1247
lfingers 7.12502
lthumb 18.0037 80.3114
rfemur -2.0021 1.29663 31.8407
rtibia 31.787
rfoot -19.1986 -18.6904
rtoes 12.8543
lfemur -26.114 -1.72774 -15.7914
ltibia 52.2741
lfoot -10.7887 5.73526
ltoes -15.3128
332
root 1.57631 17.9302 1.68984 -4.65356 -1.29155 -4.37223
lowerback 18.7533 0.387766 3.87305
upperback -0.0631755 1.83357 4.32168
thorax -10.6725 0.796892 2.04375
lowerneck -7.35793 -7.24419 -6.77389
upperneck 30.6283 -9.00484 -0.640201
head 11.4699 -4.92083 -0.160898
rclavicle -5.2181e-015 -4.69132e-014
rhumerus -43.1233 -36.0337 -50.5225
rradius 73.4636
rwrist -30.8494
rhand -19.5005 -1.87306
rfingers 7.12502
rthumb 6.82202 -31.7431
lclavicle -5.2181e-015 -4.69132e-014
lhumerus -55.0552 13.9009 67.1627
lradius 30.6632
lwrist -1.60127
lhand -8.22488 51.5169
lfingers 7.12502
lthumb 17.6925 80.7319
rfemur -1.00191 1.46736 32.3339
rtibia 31.2127
rfoot -19.2705 -18.9798
rtoes 12.2487
lfemur -26.4614 -1.72877 -15.4612
ltibia 50.0756
lfoot -10.661 6.40989
ltoes -13.039
333
root 1.55784 17.93 1.8827 -4.57205 -1.42798 -4.29973
lowerback 18.5313 0.486929 3.8308
upperback 0.00839609 1.92715 4.24653
thorax -10.4652 0.843216 1.95756
lowerneck -7.11964 -7.17643 -6.64155
upperneck 30.1264 -8.96706 -0.533117
head 11.221 -4.8772 -0.11475
rclavicle -9.0447e-015 -1.59028e-014
rhumerus -43.4713 -35.7601 -50.4672
rradius 76.39
rwrist -30.2389
rhand -19.2579 -1.89585
rfingers 7.12502
rthumb 7.0562 -31.7582
lclavicle -9.0447e-015 -1.59028e-014
lhumerus -54.9711 14.58 66.3201
lradius 29.7397
lwrist -2.3597
lhand -8.35932 50.9949
lfingers 7.12502
lthumb 17.5631 80.2216
rfemur -0.0154387 1.49722 32.3362
rtibia 30.5034
rfoot -19.0824 -19.1451
rtoes 10.7565
lfemur -26.7265 -1.75119 -15.543
ltibia 47.7848
lfoot -9.58331 7.04015
ltoes -9.11337
334
root 1.54726 17.9331 2.06824 -4.40436 -1.47539 -3.98658
lowerback 18.328 0.594517 3.64845
upperback 0.0467132 1.99897 4.10365
thorax -10.3072 0.884037 1.88385
lowerneck -7.25539 -7.06484 -6.52851
upperneck 29.8895 -8.8294 -0.4618
head 11.147 -4.79144 -0.0897097
rclavicle 4.27387e-015 -3.81667e-014
rhumerus -43.8511 -35.5095 -50.3235
rradius 79.3163
rwrist -29.7144
rhand -18.4353 -1.77695
rfingers 7.12502
rthumb 7.85024 -31.6112
lclavicle 4.27387e-015 -3.81667e-014
lhumerus -55.3501 14.3208 66.4173
lradius 30.5372
lwrist -1.68412
lhand -8.55584 51.3291
lfingers 7.12502
lthumb 17.3739 80.5726
rfemur 0.89541 1.32328 31.9984
rtibia 29.7087
rfoot -18.9181 -19.1201
rtoes 9.56468
lfemur -26.9889 -2.03084 -15.8923
ltibia 45.3312
lfoot -8.58585 7.79374
ltoes -3.64511
335
root 1.51413 17.9248 2.24492 -4.64565 -1.91336 -4.91716
lowerback 18.9011 0.694996 4.32079
upperback 0.0886403 2.34684 4.40282
thorax -10.5779 1.01875 1.73475
lowerneck -7.22064 -6.96237 -6.57623
upperneck 29.6307 -8.71074 -0.312992
head 11.0459 -4.72476 -0.0060409
rclavicle 2.34069e-014 4.69132e-014
rhumerus -44.4193 -35.0015 -50.0422
rradius 82.3136
rwrist -29.1528
rhand -17.7896 -1.75766
rfingers 7.12502
rthumb 8.47337 -31.5677
lclavicle 2.34069e-014 4.69132e-014
lhumerus -55.7306 14.2629 66.3294
lradius 30.9968
lwrist -1.01044
lhand -8.76521 51.5489
lfingers 7.12502
lthumb 17.1724 80.8101
rfemur 2.2393 1.87135 33.3598
rtibia 28.8299
rfoot -18.7843 -19.614
rtoes 9.69937
lfemur -26.9216 -1.97227 -14.6602
ltibia 42.8559
lfoot -7.76921 8.09742
ltoes -2.41964
336
root 1.50365 17.9403 2.4621 -4.5535 -1.89496 -4.64893
lowerback 18.4257 0.717596 4.1272
upperback 0.194643 2.28614 4.34683
thorax -10.1942 1.00438 1.80044
lowerneck -7.39704 -6.83756 -6.54416
upperneck 29.475 -8.51003 -0.346281
head 11.0099 -4.63146 -0.00181525
rclavicle 1.92324e-014 0
rhumerus -44.6432 -34.4334 -50.0455
rradius 85.2354
rwrist -28.3709
rhand -18.0593 -1.88621
rfingers 7.12502
rthumb 8.21307 -31.7066
lclavicle 1.92324e-014 0
lhumerus -56.0694 14.4568 66.1414
lradius 31.2559
lwrist -0.578091
lhand -8.73784 51.1454
lfingers 7.12502
lthumb 17.1988 80.4043
rfemur 3.4067 1.52361 32.9962
rtibia 27.9858
rfoot -18.9696 -19.3771
rtoes 9.54308
lfemur -26.8893 -2.41223 -14.9492
ltibia 40.1965
lfoot -7.66457 7.91484
ltoes -7.30227
337
root 1.48581 17.9425 2.66318 -4.45909 -2.01383 -4.57606
lowerback 18.0937 0.739295 4.02679
upperback 0.342065 2.25642 4.31857
thorax -9.84448 0.999557 1.83425
lowerneck -7.80128 -6.68154 -6.36035
upperneck 29.4342 -8.25711 -0.459653
head 11.0486 -4.50609 -0.0560143
rclavicle 2.68359e-015 -1.98785e-014
rhumerus -44.4538 -34.2502 -50.3211
rradius 87.8763
rwrist -27.5022
rhand -17.9018 -1.76353
rfingers 7.12502
rthumb 8.36509 -31.5779
lclavicle 2.68359e-015 -1.98785e-014
lhumerus -56.3224 14.828 65.8273
lradius 31.4759
lwrist -0.242501
lhand -8.86016 50.6381
lfingers 7.12502
lthumb 17.081 79.9072
rfemur 4.49898 1.60906 33.0023
rtibia 27.1014
rfoot -18.7961 -19.518
rtoes 9.34868
lfemur -26.9064 -2.84503 -14.8717
ltibia 37.4889
lfoot -6.59527 8.36518
ltoes -9.57283
338
root 1.46762 17.9305 2.83481 -4.23917 -2.01253 -4.76643
lowerback 18.123 0.707184 4.18938
upperback 0.323059 2.25274 4.33471
thorax -9.87697 0.989792 1.76091
lowerneck -7.92806 -6.52768 -6.27601
upperneck 29.1998 -8.05427 -0.401438
head 10.9742 -4.39621 -0.0231135
rclavicle 1.69961e-014 8.34896e-014
rhumerus -43.2799 -36.5141 -50.0376
rradius 88.8395
rwrist -24.7668
rhand -15.1269 -1.13497
rfingers 7.12502
rthumb 11.0424 -30.8245
lclavicle 1.69961e-014 8.34896e-014
lhumerus -56.4207 15.1695 65.572
lradius 31.4726
lwrist 0.0596371
lhand -8.82902 50.8978
lfingers 7.12502
lthumb 17.111 80.1643
rfemur 5.30501 1.80734 33.3678
rtibia 26.2253
rfoot -18.3731 -19.7826
rtoes 8.89526
lfemur -27.1312 -3.42526 -14.434
ltibia 34.7616
lfoot -5.78639 8.72101
ltoes -10.6815
339
root 1.46004 17.9362 3.04663 -3.99072 -1.6857 -4.25914
lowerback 17.5926 0.686396 3.82406
upperback 0.263775 2.09836 4.15146
thorax -9.6468 0.932172 1.81076
lowerneck -9.97678 -6.3544 -5.34388
upperneck 30.9325 -7.55598 -1.52787
head 11.948 -4.19258 -0.643847
rclavicle -1.15792e-014 -4.37326e-014
rhumerus -44.5313 -33.9 -50.4467
rradius 92.8843
rwrist -25.9877
rhand -17.146 -1.38287
rfingers 7.12502
rthumb 9.09449 -31.1668
lclavicle -1.15792e-014 -4.37326e-014
lhumerus -56.6574 15.1788 65.5193
lradius 31.6252
lwrist 0.358255
lhand -8.19472 51.8782
lfingers 7.12502
lthumb 17.7215 81.0906
rfemur 6.2974 1.18702 32.6383
rtibia 25.354
rfoot -18.3566 -19.3826
rtoes 8.23606
lfemur -27.185 -4.39387 -14.8715
ltibia 32.0999
lfoot -5.74635 8.99825
ltoes -12.1521
340
root 1.43207 17.9288 3.22638 -4.04108 -2.08659 -5.08309
lowerback 18.0515 0.732707 4.38817
upperback 0.107687 2.34591 4.41193
thorax -10.0734 1.02311 1.71193
lowerneck -7.15431 -6.25847 -6.20557
upperneck 28.6786 -7.73089 -0.378705
head 10.6099 -4.24326 0.054324
rclavicle 1.00883e-014 2.54444e-014
rhumerus -44.8441 -33.2168 -50.4338
rradius 95.3643
rwrist -24.8777
rhand -17.4422 -1.10357
rfingers 7.12502
rthumb 8.80864 -30.8997
lclavicle 1.00883e-014 2.54444e-014
lhumerus -57.3504 14.943 65.618
lradius 32.3402
lwrist 1.21732
lhand -7.85322 52.5636
lfingers 7.12502
lthumb 18.0501 81.746
rfemur 7.48128 1.68467 33.7793
rtibia 24.4656
rfoot -18.2043 -19.5285
rtoes 8.47349
lfemur -27.1759 -5.00363 -13.5193
ltibia 29.6379
lfoot -6.03672 9.2163
ltoes -13.5934
341
root 1.40934 17.9236 3.42223 -3.94722 -2.42647 -5.31809
lowerback 17.8892 0.830904 4.48015
upperback 0.208982 2.48121 4.47435
thorax -9.86854 1.088 1.69307
lowerneck -8.21508 -6.10987 -5.70703
upperneck 29.2728 -7.41161 -0.864677
head 10.9868 -4.09525 -0.213753
rclavicle -2.46493e-014 -2.78299e-014
rhumerus -44.6484 -32.9595 -50.7581
rradius 97.6913
rwrist -22.9827
rhand -17.8821 -0.568437
rfingers 7.12502
rthumb 8.38409 -30.382
lclavicle -2.46493e-014 -2.78299e-014
lhumerus -57.5819 14.928 65.7311
lradius 32.963
lwrist 1.92404
lhand -8.18408 52.0261
lfingers 7.12502
lthumb 17.7317 81.2376
rfemur 8.59827 1.9439 34.1269
rtibia 23.5134
rfoot -17.7771 -19.4675
rtoes 7.81012
lfemur -27.2106 -6.07517 -12.7304
ltibia 27.2086
lfoot -6.75323 9.63794
ltoes -13.6365
342
root 1.39153 17.9133 3.63118 -3.90536 -2.75445 -5.34868
lowerback 17.4323 0.951794 4.40315
upperback 0.493997 2.56978 4.48001
thorax -9.29825 1.14402 1.72184
lowerneck -8.18702 -6.01044 -5.59623
upperneck 28.7898 -7.313 -0.762623
head 10.7925 -4.02453 -0.171333
rclavicle 3.32964e-015 3.81667e-014
rhumerus -44.2267 -32.847 -51.2683
rradius 100.064
rwrist -20.6799
rhand -17.6058 -0.374182
rfingers 7.12502
rthumb 8.65072 -30.1769
lclavicle 3.32964e-015 3.81667e-014
lhumerus -57.6208 14.994 65.8969
lradius 33.6162
lwrist 2.55553
lhand -8.46502 51.4544
lfingers 7.12502
lthumb 17.4614 80.6901
rfemur 9.74538 2.03459 34.1414
rtibia 22.6352
rfoot -17.0678 -19.2627
rtoes 5.83581
lfemur -27.1663 -7.63392 -12.0312
ltibia 25.1035
lfoot -8.12847 10.2883
ltoes -11.0149
343
root 1.37666 17.9108 3.83704 -3.78246 -2.91878 -5.30958
lowerback 17.228 0.979624 4.2962
upperback 0.475641 2.56623 4.4297
thorax -9.20523 1.14732 1.73074
lowerneck -7.93867 -5.89107 -5.54958
upperneck 28.5458 -7.21031 -0.598987
head 10.6523 -3.95543 -0.094162
rclavicle -2.28105e-014 -5.88403e-014
rhumerus -44.2737 -32.3371 -51.6015
rradius 102.345
rwrist -18.0329
rhand -16.9323 -0.41163
rfingers 7.12502
rthumb 9.30069 -30.1865
lclavicle -2.28105e-014 -5.88403e-014
lhumerus -58.2296 14.6451 66.1523
lradius 34.6519
lwrist 3.52479
lhand -8.38111 51.5576
lfingers 7.12502
lthumb 17.5421 80.7862
rfemur 10.6598 1.97655 34.0286
rtibia 21.9814
rfoot -16.5596 -18.947
rtoes 4.57799
lfemur -27.1124 -9.25812 -11.4292
ltibia 23.1238
lfoot -9.2159 11.0258
ltoes -10.9188
344
root 1.36898 17.9018 4.0391 -3.58577 -3.12132 -5.2333
lowerback 17.032 1.01165 4.31187
upperback 0.401007 2.58874 4.2912
thorax -9.16894 1.15415 1.56845
lowerneck -8.24947 -5.76259 -5.28974
upperneck 28.7735 -7.05037 -0.639924
head 10.7796 -3.8593 -0.147616
rclavicle 1.67973e-014 -3.18055e-015
rhumerus -44.4026 -31.4514 -52.2261
rradius 104.643
rwrist -16.5473
rhand -18.2467 -0.37031
rfingers 7.12502
rthumb 8.0322 -30.1977
lclavicle 1.67973e-014 -3.18055e-015
lhumerus -58.1405 15.1177 65.5485
lradius 34.0199
lwrist 3.16785
lhand -8.16762 51.2248
lfingers 7.12502
lthumb 17.7475 80.4349
rfemur 11.3815 1.79875 33.7713
rtibia 21.5883
rfoot -16.3835 -18.3656
rtoes 3.92816
lfemur -27.2257 -10.6852 -10.9059
ltibia 21.405
lfoot -9.75433 12.0108
ltoes -12.1606
